<svg xmlns="http://www.w3.org/2000/svg" width="22" height="21.915" viewBox="0 0 22 21.915">
  <path id="Icon_metro-spinner2" data-name="Icon metro-spinner2" d="M5.839,12.28a6.942,6.942,0,0,1,.044-.774L1.908,10.215A11.01,11.01,0,0,0,5.187,20.3l2.455-3.379A6.85,6.85,0,0,1,5.839,12.28Zm13.75,0a6.85,6.85,0,0,1-1.8,4.641L20.241,20.3a11.01,11.01,0,0,0,3.279-10.086l-3.974,1.291A6.953,6.953,0,0,1,19.589,12.28Zm-5.5-6.737A6.884,6.884,0,0,1,18.7,8.89L22.67,7.6a11.009,11.009,0,0,0-8.581-6.234V5.542ZM6.731,8.89a6.884,6.884,0,0,1,4.607-3.348V1.365A11.009,11.009,0,0,0,2.757,7.6Zm8.83,9.649a6.891,6.891,0,0,1-5.7,0L7.41,21.919a11.011,11.011,0,0,0,10.607,0Z" transform="translate(-1.714 -1.365)"/>
</svg>
