<svg xmlns="http://www.w3.org/2000/svg" width="22" height="19.824" viewBox="0 0 22 19.824">
  <path id="Icon_awesome-chart-pie" data-name="Icon awesome-chart-pie" d="M21.344,11.151h-9.6l6.391,6.119a.67.67,0,0,0,.9.026,9.151,9.151,0,0,0,2.957-5.454.631.631,0,0,0-.649-.691ZM20.7,8.642A9.529,9.529,0,0,0,11.679,0,.639.639,0,0,0,11,.629V9.293h9.049A.636.636,0,0,0,20.7,8.642ZM9.059,11.151V1.964a.638.638,0,0,0-.721-.622A9.412,9.412,0,0,0,.006,10.856a9.648,9.648,0,0,0,9.823,8.968,9.921,9.921,0,0,0,5.47-1.7.6.6,0,0,0,.063-.932Z" transform="translate(0 0)"/>
</svg>
