<svg xmlns="http://www.w3.org/2000/svg" width="15" height="19.495" viewBox="0 0 15 19.495">
  <g id="Icon_ionic-ios-share" data-name="Icon ionic-ios-share" transform="translate(-4.5 -2.255)">
    <path id="Path_96352" data-name="Path 96352" d="M17.625,8.25H12.609v6.872a.626.626,0,0,1-.581.628.606.606,0,0,1-.637-.609V8.25H6.375A1.881,1.881,0,0,0,4.5,10.125v9.75A1.881,1.881,0,0,0,6.375,21.75h11.25A1.881,1.881,0,0,0,19.5,19.875v-9.75A1.881,1.881,0,0,0,17.625,8.25Z" fill="#fff"/>
    <path id="Path_96353" data-name="Path 96353" d="M12.609,4.317,14.855,6.53a.61.61,0,1,0,.858-.867L12.431,2.428A.619.619,0,0,0,12,2.255a.582.582,0,0,0-.234.047.651.651,0,0,0-.192.127h0L8.3,5.662a.61.61,0,1,0,.858.867l2.236-2.213V8.25h1.219Z" fill="#fff"/>
  </g>
</svg>
