<svg xmlns="http://www.w3.org/2000/svg" width="20" height="20" viewBox="0 0 20 20">
  <g id="Group_143642" data-name="Group 143642" transform="translate(-20 -268)">
    <path id="ic_gps_fixed_24px" d="M11,7.364A3.636,3.636,0,1,0,14.636,11,3.635,3.635,0,0,0,11,7.364Zm8.127,2.727a8.177,8.177,0,0,0-7.218-7.218V1H10.091V2.873a8.177,8.177,0,0,0-7.218,7.218H1v1.818H2.873a8.177,8.177,0,0,0,7.218,7.218V21h1.818V19.127a8.177,8.177,0,0,0,7.218-7.218H21V10.091H19.127ZM11,17.364A6.364,6.364,0,1,1,17.364,11,6.359,6.359,0,0,1,11,17.364Z" transform="translate(19 267)"/>
  </g>
</svg>
