<svg id="Icon_ionic-ios-calendar" data-name="Icon ionic-ios-calendar" xmlns="http://www.w3.org/2000/svg" width="22" height="20.308" viewBox="0 0 22 20.308">
  <path id="Path_96341" data-name="Path 96341" d="M23.26,6.75H21.144V8.02a.424.424,0,0,1-.423.423h-.846a.424.424,0,0,1-.423-.423V6.75H9.3V8.02a.424.424,0,0,1-.423.423H8.029a.424.424,0,0,1-.423-.423V6.75H5.49A2.122,2.122,0,0,0,3.375,8.866V23.255A2.122,2.122,0,0,0,5.49,25.371H23.26a2.122,2.122,0,0,0,2.115-2.116V8.866A2.122,2.122,0,0,0,23.26,6.75Zm.423,15.87a1.061,1.061,0,0,1-1.058,1.058H6.125A1.061,1.061,0,0,1,5.067,22.62V13.1a.424.424,0,0,1,.423-.423H23.26a.424.424,0,0,1,.423.423Z" transform="translate(-3.375 -5.063)" fill="#519cba"/>
  <path id="Path_96342" data-name="Path 96342" d="M10.687,4.922a.423.423,0,0,0-.422-.422H9.422A.423.423,0,0,0,9,4.922V6.187h1.687Z" transform="translate(-4.768 -4.5)" fill="#519cba"/>
  <path id="Path_96343" data-name="Path 96343" d="M26.437,4.922a.423.423,0,0,0-.422-.422h-.844a.423.423,0,0,0-.422.422V6.187h1.687Z" transform="translate(-8.669 -4.5)" fill="#519cba"/>
</svg>
