<svg xmlns="http://www.w3.org/2000/svg" width="20.842" height="22" viewBox="0 0 20.842 22">
  <path id="Icon_material-location-city" data-name="Icon material-location-city" d="M16.895,12.421V5.474L13.421,2,9.947,5.474V7.789H3V24H23.842V12.421ZM7.632,21.684H5.316V19.368H7.632Zm0-4.632H5.316V14.737H7.632Zm0-4.632H5.316V10.105H7.632Zm6.947,9.263H12.263V19.368h2.316Zm0-4.632H12.263V14.737h2.316Zm0-4.632H12.263V10.105h2.316Zm0-4.632H12.263V5.474h2.316Zm6.947,13.895H19.211V19.368h2.316Zm0-4.632H19.211V14.737h2.316Z" transform="translate(-3 -2)"/>
</svg>
