<svg xmlns="http://www.w3.org/2000/svg" width="16.714" height="10.274" viewBox="0 0 16.714 10.274">
  <path id="Path_96350" data-name="Path 96350" d="M6.877-7.643A2.279,2.279,0,0,1,6.34-6.077a2.687,2.687,0,0,1-1.521.813v.055A2.86,2.86,0,0,1,6.6-4.443,2.253,2.253,0,0,1,7.185-2.83a2.617,2.617,0,0,1-.991,2.2A4.508,4.508,0,0,1,3.377.137,8.162,8.162,0,0,1,1.924.017,4.971,4.971,0,0,1,.643-.4v-1.08a6.232,6.232,0,0,0,1.384.489,6.269,6.269,0,0,0,1.391.167q2.591,0,2.591-2.03,0-1.818-2.857-1.818H2.167v-.978h1a3.005,3.005,0,0,0,1.853-.516A1.694,1.694,0,0,0,5.7-7.6,1.412,1.412,0,0,0,5.2-8.75a2.07,2.07,0,0,0-1.364-.417A4.208,4.208,0,0,0,2.6-8.989a5.537,5.537,0,0,0-1.326.656L.7-9.1a4.787,4.787,0,0,1,1.418-.762,5.155,5.155,0,0,1,1.692-.277,3.457,3.457,0,0,1,2.263.667A2.244,2.244,0,0,1,6.877-7.643Zm10.479,2.55a5.046,5.046,0,0,1-1.343,3.784A5.315,5.315,0,0,1,12.147,0H9.379V-9.994h3.063A4.9,4.9,0,0,1,16.064-8.7,4.879,4.879,0,0,1,17.356-5.093Zm-1.23.041A4.024,4.024,0,0,0,15.145-8a3.931,3.931,0,0,0-2.916-.991H10.541V-1h1.415A4.3,4.3,0,0,0,15.08-2.027,4.046,4.046,0,0,0,16.126-5.052Z" transform="translate(-0.643 10.138)"/>
</svg>
