<svg xmlns="http://www.w3.org/2000/svg" width="20" height="22.857" viewBox="0 0 20 22.857">
  <path id="Icon_awesome-building" data-name="Icon awesome-building" d="M19.464,21.429h-.893V1.071A1.071,1.071,0,0,0,17.5,0H2.5A1.071,1.071,0,0,0,1.429,1.071V21.429H.536A.536.536,0,0,0,0,21.964v.893H20v-.893A.536.536,0,0,0,19.464,21.429ZM5.714,3.393a.536.536,0,0,1,.536-.536H8.036a.536.536,0,0,1,.536.536V5.179a.536.536,0,0,1-.536.536H6.25a.536.536,0,0,1-.536-.536Zm0,4.286a.536.536,0,0,1,.536-.536H8.036a.536.536,0,0,1,.536.536V9.464A.536.536,0,0,1,8.036,10H6.25a.536.536,0,0,1-.536-.536Zm2.321,6.607H6.25a.536.536,0,0,1-.536-.536V11.964a.536.536,0,0,1,.536-.536H8.036a.536.536,0,0,1,.536.536V13.75A.536.536,0,0,1,8.036,14.286Zm3.393,7.143H8.571v-3.75a.536.536,0,0,1,.536-.536h1.786a.536.536,0,0,1,.536.536Zm2.857-7.679a.536.536,0,0,1-.536.536H11.964a.536.536,0,0,1-.536-.536V11.964a.536.536,0,0,1,.536-.536H13.75a.536.536,0,0,1,.536.536Zm0-4.286A.536.536,0,0,1,13.75,10H11.964a.536.536,0,0,1-.536-.536V7.679a.536.536,0,0,1,.536-.536H13.75a.536.536,0,0,1,.536.536Zm0-4.286a.536.536,0,0,1-.536.536H11.964a.536.536,0,0,1-.536-.536V3.393a.536.536,0,0,1,.536-.536H13.75a.536.536,0,0,1,.536.536Z" fill="#519cba"/>
</svg>
