<svg xmlns="http://www.w3.org/2000/svg" width="21" height="13.5" viewBox="0 0 21 13.5">
  <path id="Icon_ionic-md-people" data-name="Icon ionic-md-people" d="M15.818,10.875a2.813,2.813,0,1,0-2.864-2.812A2.847,2.847,0,0,0,15.818,10.875Zm-7.636,0A2.813,2.813,0,1,0,5.318,8.063,2.847,2.847,0,0,0,8.182,10.875Zm0,2.063c-2.243,0-6.682,1.078-6.682,3.281V18.75H15V16.219C15,14.016,10.425,12.938,8.182,12.938Zm7.636.516A5.094,5.094,0,0,0,15,13.5a2.8,2.8,0,0,1,1.5,2.719V18.75h6V16.219C22.5,14.016,18.062,13.453,15.818,13.453Z" transform="translate(-1.5 -5.25)" fill="#fff"/>
</svg>
