<svg id="Group_144561" data-name="Group 144561" xmlns="http://www.w3.org/2000/svg" width="14.745" height="30.43" viewBox="0 0 14.745 30.43">
  <path id="Icon_ionic-ios-arrow-forward" data-name="Icon ionic-ios-arrow-forward" d="M5.889,7.37.309,1.794a1.049,1.049,0,0,1,0-1.488A1.063,1.063,0,0,1,1.8.306L8.124,6.623a1.052,1.052,0,0,1,.031,1.453L1.806,14.437A1.054,1.054,0,1,1,.314,12.949Z" transform="translate(14.745 22) rotate(90)"/>
  <path id="Icon_ionic-ios-arrow-forward-2" data-name="Icon ionic-ios-arrow-forward" d="M5.889,7.37.309,1.794a1.049,1.049,0,0,1,0-1.488A1.063,1.063,0,0,1,1.8.306L8.124,6.623a1.052,1.052,0,0,1,.031,1.453L1.806,14.437A1.054,1.054,0,1,1,.314,12.949Z" transform="translate(14.745 11) rotate(90)"/>
  <path id="Icon_ionic-ios-arrow-forward-3" data-name="Icon ionic-ios-arrow-forward" d="M5.889,7.37.309,1.794a1.049,1.049,0,0,1,0-1.488A1.063,1.063,0,0,1,1.8.306L8.124,6.623a1.052,1.052,0,0,1,.031,1.453L1.806,14.437A1.054,1.054,0,1,1,.314,12.949Z" transform="translate(14.745 0) rotate(90)"/>
</svg>
